<svg width="24" height="24" viewBox="0 0 24 24" fill="none" xmlns="http://www.w3.org/2000/svg">
<path fill-rule="evenodd" clip-rule="evenodd" d="M15.7689 3.35999C15.7689 2.94577 15.4331 2.60999 15.0189 2.60999C14.6047 2.60999 14.2689 2.94577 14.2689 3.35999V3.97501H8.78922V3.35999C8.78922 2.94577 8.45344 2.60999 8.03922 2.60999C7.62501 2.60999 7.28922 2.94577 7.28922 3.35999V3.99853C6.12669 4.09453 5.10663 4.48646 4.34259 5.21272C3.44749 6.06358 3 7.2818 3 8.73585V16.5558C3 18.0268 3.44517 19.2615 4.33734 20.1262C5.22577 20.9872 6.46355 21.3904 7.872 21.3904H15.1801C16.5883 21.3904 17.825 20.9958 18.7134 20.1477C19.6071 19.2946 20.052 18.0745 20.052 16.6212V8.73664C20.0559 7.28374 19.6131 6.06505 18.7195 5.2134C17.956 4.48574 16.9346 4.09388 15.7689 3.9983V3.35999ZM14.2689 5.47501V6.20326C14.2689 6.61747 14.6047 6.95326 15.0189 6.95326C15.4331 6.95326 15.7689 6.61747 15.7689 6.20326V5.50457C16.6116 5.5939 17.2456 5.88081 17.6846 6.29924C18.2136 6.80334 18.5553 7.58958 18.552 8.73369L18.552 8.73585V9.00952H4.5V8.73585C4.5 7.59228 4.8446 6.80508 5.37603 6.29992C5.8165 5.88123 6.45029 5.59458 7.28922 5.5049V6.20326C7.28922 6.61747 7.62501 6.95326 8.03922 6.95326C8.45344 6.95326 8.78922 6.61747 8.78922 6.20326V5.47501H14.2689ZM4.5 10.5095V16.5558C4.5 17.7235 4.84691 18.5311 5.38129 19.0491C5.91939 19.5706 6.74261 19.8904 7.872 19.8904H15.1801C16.3171 19.8904 17.1414 19.5746 17.6776 19.0627C18.2086 18.5559 18.552 17.7663 18.552 16.6212V10.5095H4.5Z" fill="#8A8E98" fill-opacity="0.6"/>
</svg>