<svg width="350" height="350" viewBox="0 0 350 350" fill="none" xmlns="http://www.w3.org/2000/svg">
<path d="M322.394 203.846L267.212 171.75L267.096 127.605L322.266 159.702L322.394 203.846Z" fill="#6880FF"/>
<path d="M292.584 149.654L237.414 117.557L267.014 100.451L322.185 132.547L292.584 149.654Z" fill="#98A8FD"/>
<path d="M322.185 132.547L267.014 100.451L266.84 38.6411L322.022 70.7379L322.185 132.547Z" fill="#6880FF"/>
<path d="M322.022 70.7379L266.84 38.6411L290.446 25L345.617 57.0968L322.022 70.7379Z" fill="#98A8FD"/>
<path d="M268.803 101.497L213.633 69.3889L237.239 55.7478L292.41 87.8445L268.803 101.497Z" fill="#98A8FD"/>
<path d="M269.059 190.449L213.889 158.353L213.633 69.3889L268.803 101.497L269.059 190.449Z" fill="#6880FF"/>
<path d="M345.617 57.0968L346 190.205L322.394 203.846L322.266 159.702L269.059 190.449L268.803 101.497L292.41 87.8445L292.584 149.654L322.185 132.547L322.022 70.7379L345.617 57.0968Z" fill="#CED5FF"/>
<path d="M192.211 252.026L137.029 219.93L166.641 202.823L221.812 234.92L192.211 252.026Z" fill="#98A8FD"/>
<path d="M221.812 234.92L166.641 202.823L166.421 124.256L221.591 156.352L221.812 234.92Z" fill="#6880FF"/>
<path d="M168.303 159.713L245.116 115.301L245.488 248.41L168.674 292.799L168.303 159.713ZM221.812 234.92L221.579 156.352L191.979 173.447L192.199 252.015L221.812 234.908" fill="#CED5FF"/>
<path d="M168.303 159.713L113.132 127.617L189.946 83.2161L245.116 115.313L168.303 159.713Z" fill="#98A8FD"/>
<path d="M168.674 292.81L113.504 260.713L113.132 127.617L168.303 159.713L168.674 292.81Z" fill="#6880FF"/>
<path d="M112.772 325L57.5903 292.903L57.4625 248.759L112.644 280.844L112.772 325Z" fill="#6880FF"/>
<path d="M82.9508 270.808L27.7805 238.711L57.3928 221.604L112.563 253.701L82.9508 270.808Z" fill="#98A8FD"/>
<path d="M112.563 253.701L57.3928 221.604L57.2186 159.795L112.389 191.891L112.563 253.701Z" fill="#6880FF"/>
<path d="M112.389 191.891L57.2186 159.795L80.8132 146.154L135.983 178.25L112.389 191.891Z" fill="#98A8FD"/>
<path d="M59.1703 222.651L4 190.554L27.6062 176.913L82.7765 209.01L59.1703 222.651Z" fill="#98A8FD"/>
<path d="M59.4259 311.603L4.25558 279.506L4 190.554L59.1703 222.651L59.4259 311.603Z" fill="#6880FF"/>
<path d="M135.983 178.25L136.367 311.359L112.772 325L112.644 280.844L59.4259 311.603L59.1703 222.651L82.7765 209.01L82.9508 270.808L112.563 253.701L112.389 191.891L135.983 178.25Z" fill="#CED5FF"/>
</svg>
