<svg width="24" height="24" viewBox="0 0 24 24" fill="#161819" xmlns="http://www.w3.org/2000/svg">
<path d="M8.06193 3.33002C5.5808 3.33002 3.57001 5.34202 3.57001 7.82194V15.6965C3.57001 18.1773 5.58068 20.1893 8.06193 20.1893H14.4822C14.8964 20.1893 15.2322 19.8536 15.2322 19.4393C15.2322 19.0251 14.8964 18.6893 14.4822 18.6893H8.06193C6.4096 18.6893 5.07001 17.3493 5.07001 15.6965V7.82194C5.07001 6.1702 6.40948 4.83002 8.06193 4.83002H14.4822C14.8964 4.83002 15.2322 4.49423 15.2322 4.08002C15.2322 3.6658 14.8964 3.33002 14.4822 3.33002H8.06193Z"/>
<path d="M16.4832 7.7679C16.1796 7.48605 15.7051 7.50364 15.4233 7.80719C15.1414 8.11073 15.159 8.58528 15.4625 8.86712L17.7704 11.01L10.6762 11.0103C10.262 11.0103 9.92624 11.3461 9.92625 11.7603C9.92627 12.1745 10.2621 12.5103 10.6763 12.5103L17.7702 12.51L15.4625 14.6528C15.159 14.9346 15.1414 15.4092 15.4233 15.7127C15.7051 16.0162 16.1796 16.0338 16.4832 15.752L20.1906 12.3095C20.3434 12.1676 20.4303 11.9685 20.4303 11.7599C20.4303 11.5514 20.3434 11.3522 20.1906 11.2103L16.4832 7.7679Z"/>
</svg>