<svg width="24" height="24" viewBox="0 0 24 24" fill="#161819" xmlns="http://www.w3.org/2000/svg">
<path d="M12.5131 15.9608L10.1876 17.9466C9.77411 18.2988 9.13291 18.078 9.02491 17.5458L8.13859 13.1849L3.8418 12.64C2.86006 12.5154 2.68297 11.1688 3.59856 10.7942L19.7433 4.18663C20.4264 3.90739 21.1405 4.51356 20.9761 5.2326L17.8061 19.1093C17.632 19.8731 16.6843 20.1456 16.1306 19.5919L10.8512 14.3135" fill-opacity="0"/>
<path fill-rule="evenodd" clip-rule="evenodd" d="M10.6746 18.5169L12.4653 16.9878L15.6003 20.1223C16.5706 21.0925 18.2318 20.6155 18.5374 19.276L21.7073 5.39962C22.007 4.08827 20.7044 2.98348 19.4592 3.49251L3.31449 10.1001C1.68602 10.7664 2.00041 13.1623 3.74746 13.384L7.51074 13.8613L8.2899 17.695C8.51178 18.7883 9.82729 19.2387 10.6746 18.5169ZM3.88265 11.4883L20.0271 4.88086C20.148 4.83153 20.2739 4.93893 20.2449 5.06556L17.0749 18.9426C17.0321 19.1304 16.7979 19.1986 16.6609 19.0615L13.1232 15.5245C13.1108 15.5072 13.0975 15.4903 13.0835 15.4738C13.0428 15.4261 12.9975 15.3849 12.9487 15.3501L11.3815 13.7831C11.0886 13.4902 10.6137 13.4903 10.3208 13.7832C10.028 14.0761 10.028 14.551 10.3209 14.8439L11.4013 15.924L9.74763 17.3361L8.97332 13.5263L15.8482 8.8975C16.1918 8.66617 16.2828 8.20009 16.0514 7.8565C15.8201 7.51291 15.354 7.42191 15.0104 7.65325L7.95248 12.4053L3.93617 11.896C3.86374 11.8867 3.82871 11.8608 3.80788 11.8386C3.78207 11.8111 3.75948 11.7677 3.75228 11.7129C3.74507 11.6582 3.75565 11.6104 3.77349 11.577C3.78791 11.5501 3.81515 11.5159 3.88265 11.4883Z"/>
</svg>