<svg width="20" height="20" viewBox="0 0 20 20" fill="none" xmlns="http://www.w3.org/2000/svg">
<path d="M11.8174 4.11367C11.5238 3.82141 11.049 3.82243 10.7567 4.11595C10.4644 4.40948 10.4655 4.88435 10.759 5.17661L14.8499 9.24996H3.33325C2.91904 9.24996 2.58325 9.58574 2.58325 9.99996C2.58325 10.4142 2.91904 10.75 3.33325 10.75H14.8498L10.7589 14.8239C10.4654 15.1162 10.4645 15.5911 10.7568 15.8846C11.049 16.1781 11.5239 16.1791 11.8174 15.8868L17.1744 10.5519C17.3233 10.4148 17.4166 10.2183 17.4166 9.99996C17.4166 9.78405 17.3254 9.58946 17.1793 9.45262L11.8174 4.11367Z" fill="white"/>
</svg>

