<svg width="24" height="24" viewBox="0 0 24 24" fill="#161819" xmlns="http://www.w3.org/2000/svg">
<path fill-rule="evenodd" clip-rule="evenodd" d="M7.76276 19.941C6.67645 19.941 5.25857 19.1985 4.90269 17.2574L3.97145 12.7909C3.35217 10.1242 4.51787 8.87625 6.73249 8.87625H18.1596C20.3743 8.87625 21.541 10.1242 20.9207 12.7909L19.9895 17.2574C19.6336 19.1985 18.2157 19.941 17.1294 19.941H7.76276Z" fill-opacity="0"/>
<path fill-rule="evenodd" clip-rule="evenodd" d="M17.3002 11.9189C17.7013 12.0225 17.9424 12.4316 17.8387 12.8327L16.9289 16.3531C16.8253 16.7541 16.4162 16.9952 16.0151 16.8916C15.6141 16.7879 15.373 16.3788 15.4766 15.9778L16.3864 12.4574C16.4901 12.0563 16.8992 11.8152 17.3002 11.9189Z"/>
<path fill-rule="evenodd" clip-rule="evenodd" d="M12.497 11.895C12.9112 11.895 13.247 12.2308 13.247 12.645V16.1654C13.247 16.5797 12.9112 16.9154 12.497 16.9154C12.0828 16.9154 11.747 16.5797 11.747 16.1654V12.645C11.747 12.2308 12.0828 11.895 12.497 11.895Z"/>
<path fill-rule="evenodd" clip-rule="evenodd" d="M7.69386 11.9189C8.0949 11.8152 8.50402 12.0563 8.60766 12.4574L9.51742 15.9778C9.62106 16.3788 9.37997 16.7879 8.97893 16.8916C8.57789 16.9952 8.16877 16.7541 8.06513 16.3531L7.15537 12.8327C7.05173 12.4316 7.29282 12.0225 7.69386 11.9189Z"/>
<path fill-rule="evenodd" clip-rule="evenodd" d="M11.4522 3.46036C11.782 3.71098 11.8462 4.18149 11.5956 4.51129L8.84849 8.12625H16.0456L13.2985 4.51129C13.0479 4.1815 13.112 3.71098 13.4418 3.46036C13.7716 3.20974 14.2421 3.27393 14.4928 3.60372L17.9296 8.12625H18.1596C19.3893 8.12625 20.5111 8.47373 21.2001 9.37942C21.8826 10.2764 21.985 11.5187 21.6532 12.9522L20.7255 17.402C20.2968 19.7171 18.5502 20.691 17.1294 20.691H7.76276C6.34191 20.691 4.59533 19.717 4.1667 17.402L3.23893 12.952C2.9076 11.5187 3.01007 10.2764 3.69232 9.37949C4.38125 8.47375 5.50282 8.12625 6.7325 8.12625H6.96452L10.4013 3.60372C10.6519 3.27393 11.1224 3.20974 11.4522 3.46036ZM4.8862 10.2876C4.5881 10.6795 4.41643 11.3914 4.70201 12.6212L4.70566 12.6378L5.63691 17.1044L5.6404 17.1222C5.92647 18.6825 7.01288 19.191 7.76276 19.191H17.1294C17.8793 19.191 18.9657 18.6825 19.2518 17.1222L19.2553 17.1044L20.1865 12.6378L20.1902 12.6209C20.4762 11.3913 20.3045 10.6795 20.0064 10.2877C19.7135 9.90273 19.1446 9.62625 18.1596 9.62625H6.7325C5.74755 9.62625 5.17896 9.90271 4.8862 10.2876Z"/>
</svg>