<svg width="56" height="56" viewBox="0 0 56 56" fill="none" xmlns="http://www.w3.org/2000/svg">
<path d="M12.9287 15.6395C12.9287 14.8111 13.6003 14.1395 14.4287 14.1395H14.5529C15.3813 14.1395 16.0529 14.8111 16.0529 15.6395C16.0529 16.468 15.3813 17.1395 14.5529 17.1395H14.4287C13.6003 17.1395 12.9287 16.468 12.9287 15.6395Z" fill="#8A8E98" fill-opacity="0.4"/>
<path d="M18.39 15.6395C18.39 14.8111 19.0616 14.1395 19.89 14.1395H20.0142C20.8427 14.1395 21.5142 14.8111 21.5142 15.6395C21.5142 16.468 20.8427 17.1395 20.0142 17.1395H19.89C19.0616 17.1395 18.39 16.468 18.39 15.6395Z" fill="#8A8E98" fill-opacity="0.4"/>
<path d="M23.8514 15.6395C23.8514 14.8111 24.5229 14.1395 25.3514 14.1395H25.4757C26.3041 14.1395 26.9757 14.8111 26.9757 15.6395C26.9757 16.468 26.3041 17.1395 25.4757 17.1395H25.3514C24.5229 17.1395 23.8514 16.468 23.8514 15.6395Z" fill="#8A8E98" fill-opacity="0.4"/>
<path fill-rule="evenodd" clip-rule="evenodd" d="M17.7082 6.34003C14.108 6.34003 11.0683 7.62418 8.93592 9.91139C6.81442 12.1869 5.70117 15.3353 5.70117 18.8832V36.3427C5.70117 39.8885 6.80837 43.0376 8.92774 45.3145C11.0584 47.6036 14.099 48.8879 17.7082 48.8879H21.5549C22.3833 48.8879 23.0549 48.2163 23.0549 47.3879C23.0549 46.5595 22.3833 45.8879 21.5549 45.8879H17.7082C14.8402 45.8879 12.6272 44.8859 11.1237 43.2706C9.60886 41.6431 8.70117 39.2695 8.70117 36.3427V23.6025H45.2492V29.9307C45.2492 30.7591 45.9207 31.4307 46.7492 31.4307C47.5776 31.4307 48.2492 30.7591 48.2492 29.9307V18.8832C48.2492 15.3372 47.142 12.1885 45.0221 9.91204C42.891 7.62345 39.8498 6.34003 36.2398 6.34003H17.7082ZM45.2492 20.6025V18.8832C45.2492 15.9562 44.3415 13.5833 42.8266 11.9565C41.3229 10.3417 39.1094 9.34003 36.2398 9.34003H17.7082C14.8508 9.34003 12.6369 10.341 11.1302 11.9571C9.61261 13.5849 8.70117 15.9581 8.70117 18.8832V20.6025H45.2492Z" fill="#8A8E98" fill-opacity="0.4"/>
<path d="M35.317 38.1744C34.7313 37.5885 33.7816 37.5884 33.1957 38.1741C32.6099 38.7598 32.6097 39.7096 33.1955 40.2955L36.5965 43.6973L33.1955 47.0992C32.6097 47.6851 32.6099 48.6348 33.1957 49.2206C33.7816 49.8063 34.7313 49.8061 35.317 49.2203L38.7175 45.8189L42.118 49.2203C42.7038 49.8061 43.6535 49.8063 44.2394 49.2206C44.8252 48.6348 44.8253 47.6851 44.2396 47.0992L40.8386 43.6973L44.2396 40.2955C44.8253 39.7096 44.8252 38.7598 44.2394 38.1741C43.6535 37.5884 42.7038 37.5885 42.118 38.1744L38.7175 41.5758L35.317 38.1744Z" fill="#8A8E98" fill-opacity="0.4"/>
</svg>