<svg width="20" height="20" viewBox="0 0 20 20" fill="#3252FC" xmlns="http://www.w3.org/2000/svg">
<path d="M6.23131 4.86757C6.99999 3.85155 8.23198 3.03906 10 3.03906C11.768 3.03906 13 3.85155 13.7687 4.86757C14.3237 5.60114 14.641 6.44297 14.7669 7.17095C15.6217 7.29593 16.4066 7.65695 17.0195 8.24396C17.7987 8.99035 18.25 10.0548 18.25 11.3215C18.25 13.026 17.2351 14.4924 15.7784 15.1502C15.4009 15.3207 14.9567 15.1529 14.7862 14.7753C14.6157 14.3978 14.7836 13.9536 15.1611 13.7831C16.0996 13.3593 16.75 12.4158 16.75 11.3215C16.75 10.4249 16.4387 9.7648 15.9819 9.3272C15.5195 8.88431 14.8579 8.62182 14.0805 8.62149C13.6664 8.62131 13.3308 8.28558 13.3308 7.87149C13.3308 7.34869 13.1139 6.48824 12.5725 5.77258C12.0542 5.08752 11.2457 4.53906 10 4.53906C8.75424 4.53906 7.94582 5.08752 7.42754 5.77258C6.88612 6.48823 6.66919 7.34868 6.66919 7.87149C6.66919 8.28319 6.33731 8.61793 5.92562 8.62146C5.1452 8.62815 4.48123 8.89191 4.01802 9.33395C3.56118 9.76989 3.25 10.4259 3.25 11.3215C3.25 12.4158 3.90045 13.3593 4.83895 13.7831C5.21646 13.9536 5.38428 14.3979 5.2138 14.7754C5.04331 15.1529 4.59908 15.3207 4.22158 15.1502C2.76495 14.4924 1.75 13.0261 1.75 11.3215C1.75 10.0539 2.2026 8.99296 2.98246 8.24876C3.59569 7.66358 4.37999 7.30372 5.23241 7.17499C5.35786 6.44609 5.67529 5.60251 6.23131 4.86757Z"/>
<path d="M9.99997 9.63083C10.4142 9.63081 10.75 9.96658 10.75 10.3808L10.7502 14.3977L11.7785 13.3694C12.0714 13.0765 12.5463 13.0765 12.8392 13.3694C13.1321 13.6623 13.132 14.1372 12.8392 14.4301L10.5573 16.7118C10.4201 16.864 10.2214 16.9597 10.0003 16.9597C9.78996 16.9597 9.59985 16.8731 9.46365 16.7336L7.1601 14.4301C6.86721 14.1372 6.86721 13.6623 7.1601 13.3694C7.453 13.0765 7.92787 13.0765 8.22076 13.3694L9.25017 14.3988L9.25 10.3809C9.24998 9.96665 9.58575 9.63085 9.99997 9.63083Z"/>
</svg>