<svg width="20" height="40" viewBox="0 0 20 40" fill="none" xmlns="http://www.w3.org/2000/svg">
<path d="M3.24304 13.4088C4.08104 12.5098 5.27155 12.0107 6.66695 12.0107H9.60861C10.0228 12.0107 10.3586 12.3465 10.3586 12.7607C10.3586 13.175 10.0228 13.5107 9.60861 13.5107H6.66695C5.64309 13.5107 4.86555 13.8681 4.3403 14.4316C3.80961 15.001 3.48083 15.8416 3.48083 16.8983V23.4393C3.48083 24.4969 3.80839 25.3374 4.33798 25.9064C4.86193 26.4692 5.63907 26.8268 6.66695 26.8268H13.6092C14.6376 26.8268 15.4149 26.4692 15.9389 25.9063C16.4686 25.3374 16.7961 24.4969 16.7961 23.4393V20.2703C16.7961 19.8561 17.1319 19.5203 17.5461 19.5203C17.9604 19.5203 18.2962 19.8561 18.2962 20.2703V23.4393C18.2962 24.8065 17.8688 26.0348 17.0368 26.9284C16.1991 27.8282 15.008 28.3268 13.6092 28.3268H6.66695C5.26849 28.3268 4.07758 27.8281 3.24005 26.9284C2.40817 26.0347 1.98083 24.8065 1.98083 23.4393V16.8983C1.98083 15.5302 2.41049 14.3021 3.24304 13.4088Z" fill="#8A8E98" fill-opacity="0.6"/>
<path fill-rule="evenodd" clip-rule="evenodd" d="M12.62 13.2604C13.5909 12.2906 15.1643 12.2906 16.1352 13.2604L17.0218 14.147C17.9925 15.1177 17.993 16.6923 17.0218 17.6628L11.553 23.1316C11.1161 23.5685 10.5234 23.8144 9.90473 23.8144H7.17652C6.97438 23.8144 6.78079 23.7328 6.63964 23.5881C6.49849 23.4434 6.42173 23.2479 6.42676 23.0458L6.49522 20.2928C6.51025 19.6957 6.75402 19.1263 7.17712 18.7032L12.62 13.2604ZM12.3161 15.6856L8.23778 19.7639C8.08704 19.9147 8.00017 20.1174 7.99475 20.3301L7.94541 22.3144H9.90473C10.1251 22.3144 10.3364 22.2268 10.4923 22.0709L14.5968 17.9664L12.3161 15.6856ZM13.3767 14.625L15.6575 16.9057L15.9611 16.6021C16.3457 16.2179 16.3464 15.593 15.9611 15.2077L15.0751 14.3216C14.69 13.9369 14.0653 13.9371 13.6801 14.3216L13.3767 14.625Z" fill="#8A8E98" fill-opacity="0.6"/>
</svg>