<svg width="21" height="20" viewBox="0 0 21 20" fill="#8A8E98" fill-opacity="0.5" xmlns="http://www.w3.org/2000/svg">
<path fill-rule="evenodd" clip-rule="evenodd" d="M16.746 14.3228L13.1202 10.3803L12.6868 10.7345C12.0768 11.2428 11.311 11.497 10.5435 11.497C9.77433 11.497 9.00516 11.242 8.39183 10.7303L7.911 10.3453L4.25266 14.3186C4.036 13.8903 3.90183 13.407 3.86183 12.897L6.93266 9.56196L3.86016 7.10195C3.8985 6.61862 4.0185 6.17445 4.211 5.78112L9.18266 9.76279C9.96183 10.412 11.1227 10.4111 11.8918 9.77029L16.7835 5.76945C16.9785 6.16362 17.1002 6.60945 17.1393 7.09362L14.0893 9.58779L17.1377 12.9028C17.0968 13.412 16.9627 13.8953 16.746 14.3228ZM18.416 12.5895C18.416 12.5878 18.4168 12.5861 18.4168 12.5836V7.41695C18.4168 7.41695 18.416 7.41445 18.416 7.41278C18.416 7.16028 18.3893 6.91862 18.351 6.68195C18.3285 6.52362 18.2977 6.37112 18.261 6.21945C18.2585 6.20695 18.2568 6.19445 18.2543 6.18195L18.251 6.18445C18.1435 5.74528 17.986 5.33278 17.7727 4.96112L17.7785 4.95612C17.7685 4.94028 17.7568 4.92528 17.7468 4.90945C17.7068 4.84028 17.661 4.77612 17.6168 4.71028C17.511 4.54945 17.396 4.39778 17.2718 4.25445C17.2343 4.21112 17.2002 4.16528 17.161 4.12445C16.9952 3.94778 16.8143 3.78945 16.6218 3.64529C16.5802 3.61528 16.5377 3.58778 16.496 3.55862C16.3027 3.42528 16.101 3.30528 15.886 3.20695C15.8693 3.19945 15.8543 3.19028 15.8385 3.18278C15.6102 3.08195 15.3693 3.00778 15.1202 2.95028C15.0643 2.93695 15.0077 2.92612 14.951 2.91528C14.7002 2.86778 14.4427 2.83528 14.1752 2.83445C14.1718 2.83445 14.1693 2.83362 14.1668 2.83362H6.8335C6.83016 2.83362 6.8285 2.83445 6.82516 2.83445C6.5435 2.83528 6.27516 2.86945 6.0135 2.91862C5.97933 2.92528 5.946 2.93195 5.91266 2.93945C4.73266 3.19278 3.776 3.92362 3.19683 4.96862L3.216 4.98362C3.00516 5.35695 2.8485 5.76778 2.74183 6.20612L2.73433 6.20028C2.72683 6.23362 2.72266 6.26945 2.71516 6.30362C2.69016 6.41779 2.6685 6.53362 2.651 6.65195C2.61183 6.89862 2.5835 7.15112 2.5835 7.41612V12.5836V12.5861C2.5835 12.8661 2.6135 13.1345 2.6585 13.3961C2.68933 13.5911 2.73766 13.7761 2.78933 13.9628C2.796 13.9886 2.80016 14.017 2.80766 14.042L2.811 14.0386C3.03183 14.7961 3.39933 15.4836 3.91683 16.0003C4.38516 16.4686 4.96016 16.7886 5.60266 16.977C5.68183 17.0011 5.75933 17.027 5.84016 17.0461C5.93933 17.0695 6.03933 17.0886 6.14183 17.1045C6.36266 17.1403 6.5885 17.1653 6.82266 17.1661C6.826 17.1661 6.82933 17.167 6.8335 17.167H14.1668C14.1693 17.167 14.1727 17.1661 14.1752 17.1661C14.4368 17.1661 14.6877 17.1361 14.9327 17.0936C14.9502 17.0903 14.9685 17.087 14.986 17.0836C15.7802 16.9328 16.4777 16.5711 17.0318 16.0403C17.0485 16.0253 17.0668 16.0153 17.0835 16.0003C17.1135 15.9703 17.1352 15.9303 17.1643 15.8995C17.3393 15.7145 17.5035 15.5186 17.6452 15.3011L17.6443 15.2995C17.886 14.9236 18.056 14.4936 18.1877 14.0436L18.1977 14.0545C18.216 13.9895 18.2252 13.9195 18.2418 13.8536C18.2777 13.7103 18.3152 13.5703 18.3385 13.4228C18.3852 13.1545 18.416 12.8795 18.416 12.5895Z" />
</svg>