<svg width="20" height="20" viewBox="0 0 20 20" fill="#8A8E98" fill-opacity="0.6" xmlns="http://www.w3.org/2000/svg">
<path fill-rule="evenodd" clip-rule="evenodd" d="M16.923 4.14361C17.2159 3.85072 17.2159 3.37585 16.923 3.08295C16.6301 2.79006 16.1552 2.79006 15.8623 3.08295L14.4402 4.5051C13.1329 3.78211 11.5924 3.34505 10.0034 3.34505C7.8753 3.34505 5.83704 4.13188 4.32385 5.3315C2.82095 6.52296 1.74927 8.19806 1.74927 10.0109C1.74927 11.8024 2.79011 13.4608 4.28126 14.664L3.07896 15.8663C2.78607 16.1591 2.78607 16.634 3.07896 16.9269C3.37185 17.2198 3.84673 17.2198 4.13962 16.9269L5.9378 15.1287C5.95511 15.113 5.97177 15.0964 5.98772 15.0788L15.0757 5.99087C15.0836 5.9833 15.0914 5.97553 15.099 5.96756L16.923 4.14361ZM13.3275 5.61776C12.3183 5.13116 11.1717 4.84505 10.0034 4.84505C8.23404 4.84505 6.52022 5.50446 5.25571 6.50693C3.98091 7.51757 3.24927 8.8004 3.24927 10.0109C3.24927 11.2555 4.02347 12.5777 5.34889 13.5963L7.18803 11.7572C6.86174 11.2369 6.68553 10.631 6.68744 10.0065C6.68531 8.17963 8.16358 6.69492 9.99141 6.69142C10.6188 6.68998 11.2282 6.86689 11.7518 7.1935L13.3275 5.61776ZM10.6375 8.30773C10.434 8.23102 10.2166 8.19087 9.99508 8.19141C8.9955 8.19318 8.18567 9.0056 8.18744 10.0059L8.18744 10.01C8.18663 10.2286 8.22605 10.443 8.3017 10.6435L10.6375 8.30773Z"/>
<path d="M12.6513 9.72431C13.0588 9.79829 13.3293 10.1887 13.2553 10.5962C13.0095 11.9499 11.9504 13.011 10.5972 13.2599C10.1898 13.3348 9.7988 13.0653 9.72388 12.6579C9.64895 12.2505 9.91846 11.8595 10.3258 11.7846C11.0659 11.6485 11.6451 11.0679 11.7794 10.3283C11.8534 9.92074 12.2437 9.65033 12.6513 9.72431Z"/>
<path d="M17.0427 6.7182C16.7907 6.38946 16.32 6.32725 15.9912 6.57925C15.6625 6.83125 15.6003 7.30203 15.8523 7.63077C16.4407 8.39834 16.7517 9.21469 16.7517 10.0112C16.7517 11.2191 16.026 12.502 14.7571 13.5128C13.4984 14.5153 11.7873 15.177 10.0058 15.177C9.36404 15.177 8.73834 15.0958 8.14383 14.9412C7.74296 14.8369 7.33345 15.0773 7.22916 15.4782C7.12487 15.879 7.3653 16.2886 7.76617 16.3928C8.48499 16.5798 9.23763 16.677 10.0058 16.677C12.1461 16.677 14.1829 15.8878 15.6917 14.686C17.1903 13.4924 18.2517 11.8174 18.2517 10.0112C18.2517 8.81431 17.7843 7.68562 17.0427 6.7182Z"/>
</svg>