<svg width="20" height="20" viewBox="0 0 20 20" fill="#8A8E98" fill-opacity="0.6" xmlns="http://www.w3.org/2000/svg">
<path fill-rule="evenodd" clip-rule="evenodd" d="M10.0015 6.69137C8.17214 6.69137 6.68816 8.17565 6.68816 10.0055C6.68816 11.8348 8.1723 13.3189 10.0015 13.3189C11.8314 13.3189 13.3157 11.8349 13.3157 10.0055C13.3157 8.1755 11.8316 6.69137 10.0015 6.69137ZM8.18816 10.0055C8.18816 9.00377 9.00087 8.19137 10.0015 8.19137C11.0031 8.19137 11.8157 9.00392 11.8157 10.0055C11.8157 11.0062 11.0033 11.8189 10.0015 11.8189C9.00071 11.8189 8.18816 11.0063 8.18816 10.0055Z"/>
<path fill-rule="evenodd" clip-rule="evenodd" d="M10 3.3385C7.8729 3.3385 5.83558 4.12765 4.32331 5.32844C2.82149 6.52093 1.75 8.19651 1.75 10.0069C1.75 11.8149 2.8112 13.4906 4.31062 14.6846C5.82012 15.8866 7.85797 16.6752 10 16.6752C12.1424 16.6752 14.1803 15.8867 15.6897 14.6846C17.1891 13.4906 18.25 11.8149 18.25 10.0069C18.25 8.19657 17.1788 6.52099 15.677 5.32846C14.1648 4.12763 12.1275 3.3385 10 3.3385ZM3.25 10.0069C3.25 8.79887 3.98142 7.51527 5.25607 6.50316C6.52025 5.49936 8.23293 4.8385 10 4.8385C11.7675 4.8385 13.4802 5.49937 14.7442 6.50314C16.0187 7.51521 16.75 8.79881 16.75 10.0069C16.75 11.2172 16.0243 12.5007 14.7553 13.5112C13.4964 14.5138 11.7842 15.1752 10 15.1752C8.2162 15.1752 6.50405 14.5138 5.24501 13.5112C3.97589 12.5006 3.25 11.2171 3.25 10.0069Z"/>
</svg>