<svg width="20" height="20" viewBox="0 0 20 20" fill="#8A8E98" fill-opacity="0.6" xmlns="http://www.w3.org/2000/svg">
<path fill-rule="evenodd" clip-rule="evenodd" d="M3.18439 5.07687H4.86428C5.18822 3.72008 6.40827 2.71124 7.86456 2.71124C9.32079 2.71124 10.5412 3.71999 10.8652 5.07687H17.5844C17.9821 5.07687 18.3044 5.39923 18.3044 5.79687C18.3044 6.19452 17.9821 6.51687 17.5844 6.51687H10.8647C10.5401 7.87245 9.32002 8.88019 7.86456 8.88019C6.40904 8.88019 5.18925 7.87241 4.86468 6.51687H3.18439C2.78674 6.51687 2.46439 6.19452 2.46439 5.79687C2.46439 5.39923 2.78674 5.07687 3.18439 5.07687ZM6.22021 5.79687L6.22006 5.78198C6.22768 4.87981 6.96089 4.15124 7.86456 4.15124C8.76169 4.15124 9.49084 4.8691 9.50909 5.76182C9.50853 5.77344 9.50825 5.78512 9.50825 5.79687C9.50825 5.80847 9.50852 5.81999 9.50907 5.83145C9.49025 6.72277 8.76148 7.44019 7.86456 7.44019C6.96101 7.44019 6.22821 6.71208 6.22007 5.81134L6.22021 5.79687Z" />
<path fill-rule="evenodd" clip-rule="evenodd" d="M16.1184 14.9231C15.7944 16.2794 14.5756 17.288 13.1193 17.288C11.6632 17.288 10.4433 16.2796 10.1192 14.9231H3.18439C2.78674 14.9231 2.46439 14.6008 2.46439 14.2031C2.46439 13.8055 2.78674 13.4831 3.18439 13.4831H10.1193C10.4436 12.1273 11.6635 11.119 13.1193 11.119C14.5754 11.119 15.7942 12.1276 16.1182 13.4831H17.5844C17.9821 13.4831 18.3044 13.8055 18.3044 14.2031C18.3044 14.6008 17.9821 14.9231 17.5844 14.9231H16.1184ZM11.4747 14.2032C11.4747 13.2955 12.2107 12.559 13.1193 12.559C14.0244 12.559 14.7579 13.2902 14.7627 14.1942C14.7627 14.1972 14.7626 14.2001 14.7626 14.2031C14.7626 14.2061 14.7627 14.2091 14.7627 14.2121C14.7579 15.1171 14.0243 15.848 13.1193 15.848C12.2108 15.848 11.4747 15.1119 11.4747 14.2032Z" />
</svg>