<svg width="20" height="20" viewBox="0 0 20 20" fill="#8A8E98" fill-opacity="0.6" xmlns="http://www.w3.org/2000/svg">
<path d="M10.75 6.90918C10.75 6.49497 10.4142 6.15918 10 6.15918C9.58579 6.15918 9.25 6.49497 9.25 6.90918V6.96188C9.25 7.37609 9.58579 7.71188 10 7.71188C10.4142 7.71188 10.75 7.37609 10.75 6.96188V6.90918Z"/>
<path d="M10.7548 9.49466C10.7548 9.08045 10.419 8.74466 10.0048 8.74466C9.59054 8.74466 9.25475 9.08045 9.25475 9.49466V13.0777C9.25475 13.4919 9.59054 13.8277 10.0048 13.8277C10.419 13.8277 10.7548 13.4919 10.7548 13.0777V9.49466Z"/>
<path fill-rule="evenodd" clip-rule="evenodd" d="M10 1.75C5.44335 1.75 1.75 5.44335 1.75 10C1.75 14.5557 5.4433 18.25 10 18.25C14.5567 18.25 18.25 14.5557 18.25 10C18.25 5.44335 14.5566 1.75 10 1.75ZM3.25 10C3.25 6.27178 6.27178 3.25 10 3.25C13.7282 3.25 16.75 6.27178 16.75 10C16.75 13.7274 13.7281 16.75 10 16.75C6.27184 16.75 3.25 13.7274 3.25 10Z"/>
</svg>