<svg width="120" height="32" viewBox="0 0 120 32" fill="none" xmlns="http://www.w3.org/2000/svg">
<path d="M78.0849 3.16669C80.0583 3.16669 81.6429 3.60802 82.8389 4.4907C84.0349 5.37337 84.6329 6.717 84.6329 8.52158C84.6329 10.9931 83.8455 12.8271 82.2708 14.0236C80.6961 15.2201 78.643 15.8184 76.1116 15.8184H68.846L67.5603 23.7624H64.0322L67.3511 3.16669H78.0849ZM76.2611 13.1409C77.7162 13.1409 78.8822 12.7878 79.7593 12.0817C80.6563 11.3756 81.1047 10.3458 81.1047 8.99234C81.1047 8.01159 80.7759 7.27603 80.1181 6.78565C79.4802 6.27566 78.5733 6.02067 77.3972 6.02067H70.4008L69.2646 13.1409H76.2611Z" fill="#161819"/>
<path d="M93.2747 7.99198C95.7264 7.99198 97.5104 8.51177 98.6267 9.55137C99.7629 10.591 100.171 12.1307 99.8526 14.1707L98.2978 23.7624H95.1883L95.6966 20.6436C93.9624 22.9582 91.4708 24.1155 88.2217 24.1155C86.4477 24.1155 85.1122 23.7624 84.2152 23.0563C83.3382 22.3501 82.8996 21.4184 82.8996 20.2611C82.8996 18.6135 83.5774 17.3581 84.9328 16.4951C86.2882 15.632 88.3214 15.0926 91.0323 14.8768L96.444 14.4355L96.5935 13.494C96.753 12.5525 96.5238 11.7875 95.9058 11.199C95.2879 10.6106 94.2813 10.3164 92.886 10.3164C91.69 10.3164 90.6635 10.5419 89.8064 10.9931C88.9692 11.4442 88.4111 12.1013 88.132 12.9644H84.9926C85.3912 11.2383 86.3381 9.9829 87.833 9.1983C89.328 8.39408 91.1419 7.99198 93.2747 7.99198ZM89.5373 21.7911C91.2914 21.7911 92.7465 21.3596 93.9026 20.4965C95.0786 19.6335 95.7763 18.5448 95.9955 17.2306L96.1151 16.4657L91.122 16.8481C87.8928 17.1228 86.2783 18.0937 86.2783 19.761C86.2783 20.369 86.5474 20.8594 87.0855 21.2321C87.6437 21.6048 88.4609 21.7911 89.5373 21.7911Z" fill="#161819"/>
<path d="M115.464 8.34504H119.231L109.842 25.263C108.866 27.0676 107.869 28.3033 106.853 28.9702C105.836 29.6567 104.421 30 102.607 30C101.869 30 101.152 29.9608 100.454 29.8823L100.873 27.3225C101.53 27.3814 102.168 27.4108 102.786 27.4108C103.743 27.4108 104.49 27.2343 105.029 26.8812C105.587 26.5281 106.155 25.8514 106.733 24.8511L107.331 23.7624H105.686L101.142 8.34504H104.789L108.377 22.1442L115.464 8.34504Z" fill="#161819"/>
<path fill-rule="evenodd" clip-rule="evenodd" d="M59.8659 9.63285C58.6711 8.44356 57.078 7.84893 55.0867 7.84893C52.5378 7.84893 50.4967 8.69702 48.9634 10.3932L50.3075 2H45.4089L41.9141 23.524H46.4842L46.9322 20.8043C47.908 22.8514 49.7798 23.875 52.5478 23.875C55.1166 23.875 57.2772 23.0171 59.0295 21.3014C60.7819 19.5858 61.6581 17.3144 61.6581 14.4875C61.6581 12.4403 61.0607 10.8221 59.8659 9.63285ZM55.3555 18.7572C54.3798 19.7125 53.1253 20.1902 51.5919 20.1902C50.2577 20.1902 49.2521 19.8002 48.5751 19.0204C47.898 18.2405 47.6491 17.217 47.8283 15.9497L47.9179 15.4818C48.1967 14.273 48.7842 13.3177 49.6803 12.6158C50.5764 11.8944 51.6716 11.5337 52.966 11.5337C54.1807 11.5337 55.1265 11.8652 55.8036 12.5281C56.4806 13.1714 56.8192 14.039 56.8192 15.1308C56.8192 16.5931 56.3313 17.8018 55.3555 18.7572Z" fill="url(#paint0_linear_443_7616)"/>
<path d="M42.2611 8.19986H37.3624L36.2274 15.0431H36.2572C35.9983 16.4858 35.4507 17.6654 34.6144 18.5817C33.778 19.4785 32.7226 19.927 31.4482 19.927C29.198 19.927 28.3019 18.4745 28.7599 15.5695L29.9547 8.19986H25.056L23.6223 17.061C23.2837 19.2251 23.5526 20.9018 24.4287 22.0911C25.3248 23.2803 26.7885 23.875 28.8196 23.875C31.7668 23.875 34.0668 22.7052 35.7196 20.3656L35.2118 23.524H39.7819L42.2611 8.19986Z" fill="url(#paint1_linear_443_7616)"/>
<path d="M10.0673 8.33894L10.5101 5.8842L17.5058 10.4512L8.62094 15.1037L9.15226 12.6775C4.28071 12.6775 1.83181 14.824 0.769165 23.524H6.70228L7.94204 17.9866H11.3071L13.9342 23.524H20.4577L17.1516 17.1874C19.2671 16.1598 23.3917 13.0086 22.9667 8.62437C22.5416 4.2401 18.6177 3.08695 16.7089 3.0584H5.22639L3.6485 10.4512C4.99904 9.13441 7.24456 8.11147 10.0673 8.33894Z" fill="url(#paint2_linear_443_7616)"/>
<defs>
<linearGradient id="paint0_linear_443_7616" x1="-12.1277" y1="-5.50196" x2="-8.91179" y2="32.0811" gradientUnits="userSpaceOnUse">
<stop stop-color="#3252FC"/>
<stop offset="1" stop-color="#1BD1D5"/>
</linearGradient>
<linearGradient id="paint1_linear_443_7616" x1="-12.1277" y1="-5.50196" x2="-8.91179" y2="32.0811" gradientUnits="userSpaceOnUse">
<stop stop-color="#3252FC"/>
<stop offset="1" stop-color="#1BD1D5"/>
</linearGradient>
<linearGradient id="paint2_linear_443_7616" x1="-12.1277" y1="-5.50196" x2="-8.91179" y2="32.0811" gradientUnits="userSpaceOnUse">
<stop stop-color="#3252FC"/>
<stop offset="1" stop-color="#1BD1D5"/>
</linearGradient>
</defs>
</svg>
