<svg width="24" height="24" viewBox="0 0 24 24" fill="#161819" xmlns="http://www.w3.org/2000/svg">
    <path d="M17.0351 19.1159C19.4802 19.1159 21 17.3908 21 14.9496V8.36158C21 5.91942 19.4802 4.19531 17.0361 4.19531H6.96486C4.52854 4.19531 3 5.91942 3 8.36158V14.9496C3 17.3908 4.52076 19.1159 6.96486 19.1159" fill-opacity="0"/>
    <path d="M12.7502 13.7539C12.7502 13.3397 12.4144 13.0039 12.0002 13.0039C11.586 13.0039 11.2502 13.3397 11.2502 13.7539V17.9897L10.2473 16.9825C9.955 16.689 9.48013 16.688 9.18662 16.9802C8.8931 17.2725 8.89209 17.7474 9.18437 18.0409L11.438 20.3041C11.5754 20.4596 11.7763 20.5577 12.0002 20.5577C12.2298 20.5577 12.4353 20.4545 12.5729 20.292L14.8152 18.041C15.1076 17.7476 15.1067 17.2727 14.8132 16.9804C14.5198 16.688 14.0449 16.6889 13.7526 16.9824L12.7502 17.9886V13.7539Z"/>
    <path fill-rule="evenodd" clip-rule="evenodd" d="M6.96486 3.44531C5.56105 3.44531 4.3634 3.94711 3.52032 4.85111C2.68265 5.74932 2.25 6.98469 2.25 8.36158V14.9496C2.25 16.3251 2.68014 17.5605 3.517 18.4593C4.35948 19.3641 5.55755 19.8659 6.96486 19.8659C7.37907 19.8659 7.71486 19.5301 7.71486 19.1159C7.71486 18.7017 7.37907 18.3659 6.96486 18.3659C5.92807 18.3659 5.14371 18.0052 4.61479 17.4371C4.08024 16.863 3.75 16.0153 3.75 14.9496V10.2404H20.25V14.9496C20.25 16.0155 19.9199 16.8631 19.3855 17.4372C18.8568 18.0051 18.0725 18.3659 17.0351 18.3659C16.6209 18.3659 16.2851 18.7017 16.2851 19.1159C16.2851 19.5301 16.6209 19.8659 17.0351 19.8659C18.4428 19.8659 19.641 19.3641 20.4834 18.4592C21.3202 17.5604 21.75 16.3249 21.75 14.9496V8.36158C21.75 6.98582 21.3202 5.75033 20.4835 4.8516C19.6412 3.9468 18.4433 3.44531 17.0361 3.44531H6.96486ZM20.25 8.74039V8.36158C20.25 7.29518 19.9199 6.44754 19.3856 5.87368C18.8571 5.30588 18.073 4.94531 17.0361 4.94531H6.96486C5.93235 4.94531 5.14757 5.30557 4.6173 5.87416C4.08162 6.44855 3.75 7.29631 3.75 8.36158V8.74039H20.25Z"/>
</svg>