<svg width="20" height="20" viewBox="0 0 20 20" fill="#8A8E98" fill-opacity="0.6" xmlns="http://www.w3.org/2000/svg">
<path fill-rule="evenodd" clip-rule="evenodd" d="M14.4263 15.6713C13.1162 16.6801 11.475 17.28 9.69368 17.28C5.40512 17.28 1.92905 13.8029 1.92905 9.51458C1.92905 5.22617 5.40523 1.75 9.69368 1.75C13.9821 1.75 17.4583 5.22618 17.4583 9.51458C17.4583 11.4812 16.7272 13.2773 15.5219 14.6455L17.8516 16.9692C18.1448 17.2617 18.1454 17.7365 17.8529 18.0298C17.5604 18.3231 17.0855 18.3237 16.7923 18.0312L14.4263 15.6713ZM3.42905 9.51458C3.42905 6.05461 6.23365 3.25 9.69368 3.25C13.1536 3.25 15.9583 6.05461 15.9583 9.51458C15.9583 11.315 15.1989 12.938 13.9831 14.0809C13.9672 14.0944 13.9517 14.1087 13.9367 14.1237L13.9327 14.1277C12.8172 15.1536 11.3286 15.78 9.69368 15.78C6.23376 15.78 3.42905 12.9747 3.42905 9.51458Z"/>
</svg>