<svg width="20" height="20" viewBox="0 0 20 20" fill="none" xmlns="http://www.w3.org/2000/svg">
<path fill-rule="evenodd" clip-rule="evenodd" d="M10 19C14.9706 19 19 14.9706 19 10C19 5.02944 14.9706 1 10 1C5.02944 1 1 5.02944 1 10C1 14.9706 5.02944 19 10 19ZM9.32331 13.0749L14.3232 8.07495C14.6405 7.75771 14.6405 7.24343 14.3232 6.9262C14.006 6.60896 13.4917 6.60896 13.1745 6.9262L8.74947 11.3523L6.82226 9.42617C6.50502 9.10893 5.99182 9.10893 5.67459 9.42617C5.35735 9.7434 5.35735 10.2577 5.67459 10.5749L8.17456 13.0749C8.33371 13.234 8.54051 13.3131 8.74947 13.3131C8.95735 13.3131 9.16415 13.234 9.32331 13.0749Z" fill="#3252FC"/>
</svg>