<svg width="24" height="24" viewBox="0 0 24 24" fill="#161819" xmlns="http://www.w3.org/2000/svg">
    <path fill-rule="evenodd" clip-rule="evenodd" d="M20.6509 17.7481C20.657 17.7386 20.6629 17.7289 20.6686 17.7191L21.2928 16.64C21.52 16.2471 21.6358 15.8203 21.6497 15.3963C21.6596 15.1345 21.6308 14.8703 21.562 14.6125C21.38 13.9299 20.9334 13.3481 20.3211 12.9959C20.1266 12.884 19.9706 12.7189 19.8698 12.5223C19.7087 12.1882 19.7101 11.7832 19.908 11.4379C20.0047 11.2756 20.1424 11.1415 20.3073 11.049L20.3172 11.0432C21.0149 10.6374 21.4596 9.96313 21.5965 9.22711C21.7271 8.59079 21.6209 7.92599 21.2937 7.35965L20.6702 6.27838C19.9371 5.0062 18.3127 4.56726 17.0387 5.29724L17.031 5.30182C17.0067 5.3161 16.9821 5.32944 16.957 5.34183C16.9291 5.35565 16.9008 5.36829 16.872 5.37973C16.3521 5.56873 15.7573 5.36389 15.4705 4.87082C15.3783 4.70587 15.3311 4.51959 15.3333 4.33057L15.3333 4.31909C15.3304 3.44785 14.9095 2.67551 14.2608 2.19174C13.7974 1.83432 13.2259 1.63721 12.6336 1.63739H11.484L11.4004 1.63547L11.3826 1.63528C11.1128 1.63553 10.8525 1.67587 10.6071 1.75067C10.1909 1.87054 9.80634 2.09128 9.48979 2.39838C8.98128 2.89175 8.69023 3.56744 8.68124 4.27591L8.6813 4.28888C8.68271 4.59418 8.5621 4.88739 8.34628 5.10333C8.16174 5.28799 7.92064 5.40302 7.66374 5.4317C7.63173 5.43445 7.59933 5.43591 7.56665 5.436C7.37769 5.43338 7.19273 5.38116 7.03018 5.2847L7.02022 5.27899C6.26213 4.8446 5.37993 4.82413 4.6353 5.14682C4.43884 5.22812 4.25153 5.33316 4.07809 5.46069C3.78813 5.67276 3.53661 5.94727 3.34544 6.27838L2.74913 7.31122L2.72971 7.34314L2.72061 7.35849C2.66437 7.45612 2.61499 7.55585 2.57234 7.65707L2.56261 7.68027L2.54793 7.71649C2.33292 8.24017 2.28908 8.82248 2.42902 9.3782C2.60204 10.0653 3.04166 10.6552 3.65071 11.0172L3.66197 11.0236C3.92708 11.175 4.1207 11.4261 4.19981 11.721C4.27893 12.0159 4.23689 12.3301 4.08319 12.5939L4.07732 12.6043C4.04552 12.661 4.0088 12.7144 3.96771 12.7641C3.95601 12.778 3.94397 12.7917 3.93159 12.8051C3.86311 12.8712 3.78677 12.9291 3.70401 12.9774C3.29356 13.2152 2.97026 13.5458 2.74538 13.9274C2.25922 14.7313 2.21411 15.7683 2.71701 16.6394L3.34401 17.7254C3.49828 17.9926 3.69189 18.223 3.91333 18.4134C4.20871 18.674 4.56108 18.8684 4.94727 18.9782C5.6288 19.1719 6.35948 19.0861 6.97752 18.7397L6.98872 18.7331C7.25241 18.5793 7.56665 18.5371 7.86157 18.616C8.15649 18.6949 8.40759 18.8885 8.55919 19.1535L8.56532 19.1638C8.59338 19.2111 8.61771 19.2603 8.63814 19.3109C8.67691 19.4291 8.69719 19.5531 8.69785 19.6784C8.69879 20.3456 8.94516 20.9555 9.35162 21.4224C9.82129 21.9737 10.5118 22.3311 11.2863 22.3578C11.3173 22.3617 11.3487 22.3637 11.3801 22.3637L12.6267 22.3647C13.0806 22.3651 13.508 22.252 13.8822 22.052C14.1139 21.9297 14.3283 21.7726 14.5172 21.5841C14.5762 21.5252 14.6322 21.4638 14.685 21.4002C15.0821 20.9241 15.3017 20.3215 15.3007 19.6965C15.3003 19.4262 15.3947 19.1656 15.5656 18.9591C15.5877 18.9326 15.6111 18.9071 15.6357 18.8825C15.8531 18.6656 16.1481 18.5443 16.4552 18.5456H16.4607C16.4797 18.5455 16.4986 18.5459 16.5175 18.5468C16.6877 18.5624 16.8529 18.6143 17.0019 18.6993C17.3435 18.8959 17.7107 19.0083 18.0792 19.043C18.3881 19.0754 18.7032 19.054 19.0103 18.9763C19.6995 18.8021 20.29 18.3596 20.6509 17.7481ZM12 14.3586C13.3026 14.3586 14.3586 13.3026 14.3586 12C14.3586 10.6974 13.3026 9.64142 12 9.64142C10.6974 9.64142 9.64142 10.6974 9.64142 12C9.64142 13.3026 10.6974 14.3586 12 14.3586Z" fill-opacity="0"/>
    <path fill-rule="evenodd" clip-rule="evenodd" d="M12 8.61382C10.1299 8.61382 8.61385 10.1298 8.61385 12C8.61385 13.8701 10.1299 15.3861 12 15.3861C13.8701 15.3861 15.3862 13.8701 15.3862 12C15.3862 10.1298 13.8701 8.61382 12 8.61382ZM10.1138 12C10.1138 10.9583 10.9583 10.1138 12 10.1138C13.0417 10.1138 13.8862 10.9583 13.8862 12C13.8862 13.0417 13.0417 13.8861 12 13.8861C10.9583 13.8861 10.1138 13.0417 10.1138 12Z"/>
    <path fill-rule="evenodd" clip-rule="evenodd" d="M20.6686 17.719C20.6629 17.7289 20.657 17.7386 20.6509 17.7481C20.29 18.3596 19.6995 18.802 19.0103 18.9763C18.7032 19.0539 18.3881 19.0754 18.0792 19.043C17.7107 19.0083 17.3435 18.8959 17.0019 18.6993C16.8529 18.6143 16.6877 18.5624 16.5175 18.5468C16.4986 18.5459 16.4797 18.5455 16.4607 18.5455L16.4552 18.5455C16.1481 18.5443 15.8531 18.6656 15.6357 18.8825C15.6111 18.9071 15.5877 18.9326 15.5656 18.9591C15.3947 19.1655 15.3003 19.4261 15.3007 19.6964C15.3017 20.3215 15.0821 20.9241 14.685 21.4002C14.6322 21.4638 14.5763 21.5252 14.5172 21.5841C14.3283 21.7725 14.1139 21.9296 13.8822 22.052C13.508 22.2519 13.0806 22.3651 12.6267 22.3647L11.3801 22.3637C11.3487 22.3637 11.3173 22.3617 11.2863 22.3577C10.5118 22.3311 9.8213 21.9737 9.35162 21.4224C8.94516 20.9555 8.69879 20.3456 8.69784 19.6783C8.69718 19.5531 8.67691 19.4291 8.63814 19.3109C8.6177 19.2602 8.59339 19.211 8.56532 19.1637L8.55919 19.1534C8.40759 18.8884 8.1565 18.6949 7.86157 18.616C7.56665 18.5371 7.25241 18.5792 6.98872 18.7331L6.97752 18.7396C6.35948 19.0861 5.6288 19.1719 4.94727 18.9782C4.56109 18.8684 4.20871 18.674 3.91334 18.4134C3.6919 18.2229 3.49828 17.9925 3.34401 17.7253L2.71701 16.6393C2.21411 15.7683 2.25922 14.7312 2.74537 13.9274C2.97026 13.5458 3.29357 13.2151 3.70401 12.9774C3.78677 12.929 3.86311 12.8711 3.93159 12.8051C3.94397 12.7917 3.95601 12.778 3.96771 12.7641C4.0088 12.7144 4.04551 12.6609 4.07732 12.6043L4.08319 12.5938C4.23689 12.33 4.27893 12.0158 4.19981 11.721C4.1207 11.4261 3.92708 11.175 3.66198 11.0236L3.65072 11.0172C3.04166 10.6551 2.60203 10.0652 2.42902 9.37818C2.28907 8.82245 2.33292 8.24014 2.54792 7.71647C2.55581 7.6966 2.56395 7.67679 2.57234 7.65703C2.61499 7.5558 2.66436 7.45609 2.72061 7.35847L2.72971 7.34311L2.74913 7.31118L3.34544 6.27835C3.5366 5.94724 3.78813 5.67272 4.0781 5.46066C4.25152 5.33313 4.43884 5.22809 4.6353 5.1468C5.37992 4.82408 6.26213 4.84457 7.02022 5.27896L7.03018 5.28467C7.19273 5.38114 7.37768 5.43336 7.56664 5.43599C7.59934 5.43588 7.63173 5.43443 7.66374 5.43168C7.92064 5.40299 8.16174 5.28798 8.34629 5.1033C8.5621 4.88735 8.68271 4.59414 8.6813 4.28884L8.68124 4.27588C8.69023 3.56741 8.98128 2.89173 9.4898 2.39836C9.80634 2.09124 10.191 1.87052 10.6071 1.75064C10.8525 1.67583 11.1128 1.63549 11.3826 1.63525L11.4004 1.63545L11.484 1.63737H12.6336C13.2259 1.63719 13.7974 1.83429 14.2608 2.19172C14.9095 2.67549 15.3304 3.44783 15.3333 4.31907L15.3333 4.33055C15.3311 4.51956 15.3783 4.70584 15.4705 4.8708C15.7573 5.36386 16.3521 5.56869 16.872 5.3797C16.9266 5.35798 16.9797 5.33199 17.031 5.3018L17.0387 5.29722C18.3127 4.56724 19.9371 5.00616 20.6702 6.27834L21.2937 7.35961C21.6209 7.92596 21.7271 8.59077 21.5965 9.22709C21.4596 9.96311 21.0149 10.6373 20.3172 11.0432L20.3073 11.049C20.1424 11.1415 20.0047 11.2756 19.908 11.4379C19.7101 11.7832 19.7087 12.1882 19.8698 12.5223C19.9706 12.7188 20.1267 12.884 20.3211 12.9959C20.9334 13.3481 21.38 13.9299 21.562 14.6124C21.6307 14.8703 21.6596 15.1344 21.6497 15.3963C21.6358 15.8203 21.52 16.2471 21.2928 16.64L20.6686 17.719ZM19.5744 9.69079L19.5708 9.69284C19.909 9.49396 20.1101 9.15012 20.1405 8.78607C20.1488 8.57367 20.0991 8.35644 19.9848 8.15888L19.9761 8.14332L19.4073 7.10383L19.3637 7.02835C19.2102 6.76248 18.9571 6.56874 18.6604 6.49C18.3637 6.41125 18.0478 6.45399 17.7827 6.60877L17.7702 6.61589C17.5929 6.71486 17.4092 6.79142 17.2222 6.84648C17.1236 6.87625 17.0235 6.90015 16.9227 6.91819C16.5463 6.98702 16.1558 6.97432 15.7783 6.87631C15.0968 6.69935 14.5136 6.25883 14.157 5.65175L14.158 5.65345L14.1608 5.6518L14.1588 5.64841L14.156 5.65004L14.157 5.65175C14.0075 5.39938 13.9027 5.12439 13.846 4.83891C13.8093 4.66251 13.7903 4.481 13.7903 4.29678C13.7897 3.92883 13.617 3.60128 13.3484 3.39036C13.1565 3.25119 12.9204 3.16924 12.6653 3.16946L12.6474 3.16927L11.6501 3.1464L11.3791 3.1469L11.3646 3.14679C11.2922 3.14552 11.2203 3.15102 11.1499 3.16295C10.9155 3.2102 10.7066 3.32793 10.5463 3.4931C10.3394 3.70906 10.2243 3.99718 10.2257 4.2968L10.2256 4.31118C10.2227 4.51415 10.1972 4.71156 10.1514 4.901C10.0564 5.30551 9.86809 5.68109 9.60369 5.99809C9.40531 6.23705 9.16378 6.44292 8.8864 6.60307C8.06244 7.07878 7.04729 7.07878 6.22334 6.60306C5.88473 6.40822 5.48851 6.40424 5.15934 6.5577C4.96889 6.65657 4.80356 6.80924 4.6885 7.00893L4.6794 7.0243L4.16091 7.87661L4.02588 8.1115L4.01851 8.12404C3.9812 8.18613 3.95003 8.2511 3.92516 8.31805C3.75267 8.83052 3.95748 9.41025 4.44244 9.69285L4.44111 9.69208L4.42281 9.72378L4.42419 9.72458L4.43836 9.70029L4.44244 9.69285C5.26561 10.1687 5.77264 11.0474 5.77264 11.9984C5.77264 12.9498 5.26506 13.8289 4.44111 14.3046C4.22446 14.4301 4.06388 14.6153 3.96814 14.8274C3.8312 15.1507 3.84174 15.532 4.0297 15.86L4.03475 15.8688L4.50644 16.7186L4.65086 16.9677L4.65803 16.9803C4.68409 17.0274 4.71321 17.0722 4.74511 17.1147C5.09589 17.5553 5.72423 17.6868 6.22841 17.4005L6.22468 17.4027L6.2278 17.408L6.22899 17.4073L6.22698 17.4038L6.23196 17.4009L6.23092 17.3991L6.22841 17.4005C6.83933 17.0452 7.5668 16.9482 8.24957 17.1311C8.93372 17.3145 9.51621 17.7637 9.86739 18.3788L9.87539 18.3931C9.90306 18.4442 9.92902 18.496 9.95326 18.5485C10.1287 18.908 10.2201 19.3037 10.2194 19.7054L10.2193 19.7027L10.2166 19.7027L10.2167 19.7095L10.2193 19.7095L10.2194 19.7054C10.2212 19.9346 10.2893 20.1481 10.4055 20.3275C10.6144 20.6317 10.9643 20.8315 11.361 20.8328L11.3712 20.8329L12.6465 20.8544L12.6423 20.8544L12.6426 20.8591L12.6519 20.8591L12.652 20.8545L12.6465 20.8544C12.8157 20.8544 12.9812 20.8173 13.1318 20.7475C13.2774 20.6784 13.4063 20.58 13.511 20.4598C13.6846 20.258 13.7902 19.9959 13.792 19.7091L13.7921 19.7145L13.7965 19.7144L13.7966 19.7055L13.7921 19.7055L13.792 19.7091C13.7873 19.0063 14.0616 18.3302 14.5548 17.8293C15.0488 17.3275 15.7219 17.0427 16.4259 17.0374L16.424 17.0374L16.424 17.0409L16.4279 17.0409L16.4279 17.0374L16.4259 17.0374C16.6066 17.0354 16.7863 17.0523 16.962 17.0875C17.2509 17.1428 17.5296 17.2464 17.786 17.3951L17.7837 17.3938L17.7784 17.4031L17.7833 17.4059L17.7857 17.4019L17.7821 17.3999L17.7866 17.4024L17.7896 17.3972L17.786 17.3951C18.0569 17.5487 18.3637 17.5817 18.6439 17.511C18.9251 17.4323 19.1771 17.2482 19.3354 16.9759L19.3406 16.9671L19.9969 15.8734L19.9947 15.8771L19.998 15.879L20.0027 15.8706L19.9997 15.8688L19.9969 15.8734C20.0405 15.7978 20.0751 15.7181 20.1004 15.636C20.1595 15.4339 20.1626 15.2177 20.1067 15.011C20.0266 14.7147 19.8316 14.4625 19.565 14.3103L19.5526 14.3031C19.4298 14.2298 19.315 14.1482 19.2085 14.0594C18.7835 13.7137 18.4729 13.2423 18.3251 12.7072C18.1376 12.0285 18.2274 11.3032 18.5749 10.6908L18.5739 10.6925L18.5749 10.6931L18.5768 10.6896L18.5759 10.6891L18.5749 10.6908C18.6526 10.5527 18.7425 10.4225 18.8433 10.3018C18.9777 10.1401 19.1316 9.99517 19.3015 9.87046C19.3873 9.80599 19.4772 9.74665 19.5708 9.69284L19.5685 9.69421L19.5708 9.69821L19.5767 9.6948L19.5744 9.69079Z"/>
</svg>